P3
# [PyPNM ver. 2.21.2.34](https://dnyarri.github.io/pypnm.html)
11 11
65535
65535 65535 
65535 65535 65535 
65535 65535 65535 
65535 65535 65535 
65535 65535 65535 
65535 65535 65535 
65535 65535 65535 
65535 65535 65535 
65535 65535 65535 
65535 65535 65535 
65535 65535 65535 
65535 65535 65535 
65535 65535 65535 
65535 56797 8738 
0 65535 65535 
65535 50885 14650 
0 65535 65535 
65535 44975 20560 
0 65535 65535 
65535 39063 26472 
0 65535 65535 
65535 65535 65535 
65535 65535 65535 
65535 56797 8738 
0 65535 65535 
65535 50885 14650 
0 65535 65535 
65535 44975 20560 
0 65535 65535 
65535 39063 26472 
0 65535 65535 
65535 32895 32640 
0 65535 65535 
65535 65535 65535 
65535 65535 65535 
65535 50629 14906 
0 65535 65535 
65535 44717 20818 
0 65535 65535 
65535 38807 26728 
0 65535 65535 
65535 32895 32640 
0 65535 65535 
65535 65535 65535 
65535 65535 65535 
65535 50629 14906 
0 65535 65535 
65535 44717 20818 
0 65535 65535 
65535 38807 26728 
0 65535 65535 
65535 32895 32640 
0 65535 65535 
65535 26986 38549 
0 65535 65535 
65535 65535 65535 
65535 65535 65535 
65535 44717 20818 
0 65535 65535 
65535 38807 26728 
0 65535 65535 
65535 32895 32640 
0 65535 65535 
65535 26986 38549 
0 65535 65535 
65535 65535 65535 
65535 65535 65535 
65535 44717 20818 
0 65535 65535 
65535 38807 26728 
0 65535 65535 
65535 32895 32640 
0 65535 65535 
65535 26986 38549 
0 65535 65535 
65535 21074 44461 
0 65535 65535 
65535 65535 65535 
65535 65535 65535 
65535 38807 26728 
0 65535 65535 
65535 32895 32640 
0 65535 65535 
65535 26986 38549 
0 65535 65535 
65535 21074 44461 
0 65535 65535 
65535 65535 65535 
65535 65535 65535 
65535 38807 26728 
0 65535 65535 
65535 32895 32640 
0 65535 65535 
65535 26986 38549 
0 65535 65535 
65535 21074 44461 
0 65535 65535 
65535 15164 50371 
0 65535 65535 
65535 65535 65535 
65535 65535 65535 
65535 32895 32640 
0 65535 65535 
65535 26986 38549 
0 65535 65535 
65535 20818 44717 
0 65535 65535 
65535 14906 50629 
0 65535 65535 
65535 65535 65535 
65535 65535 65535 
65535 65535 65535 
65535 65535 65535 
65535 65535 65535 
65535 65535 65535 
65535 65535 65535 
65535 65535 65535 
65535 65535 65535 
65535 65535 65535 
65535 65535 65535 
65535 65535 65535 
65535 