P2
# [PyPNM ver. 2.21.2.34](https://dnyarri.github.io/pypnm.html)
11 11
65535
65535 65535 
65535 65535 65535 
65535 65535 65535 
65535 65535 65535 
65535 65535 4370 
65535 8224 65535 
12594 65535 17734 
65535 65535 65535 
4370 65535 8224 
65535 12594 65535 
17734 65535 23644 
65535 65535 65535 
7968 65535 12594 
65535 17734 65535 
23644 65535 65535 
65535 8224 65535 
12594 65535 17734 
65535 23902 65535 
30070 65535 65535 
65535 12594 65535 
17734 65535 23902 
65535 30070 65535 
65535 65535 12594 
65535 17990 65535 
23644 65535 30326 
65535 37265 65535 
65535 65535 17990 
65535 23902 65535 
30326 65535 37265 
65535 65535 65535 
17990 65535 23644 
65535 30326 65535 
37007 65535 44975 
65535 65535 65535 
23902 65535 30326 
65535 37521 65535 
44975 65535 65535 
65535 65535 65535 
65535 65535 65535 
65535 65535 65535 
65535 65535 