P3
# Created by GIMP version 2.10.38 PNM plug-in
11 11
255
255
255
255
255
255
255
255
255
255
255
255
255
255
255
255
255
255
255
255
255
255
255
255
255
255
255
255
255
255
255
255
255
255
255
255
255
255
255
255
221
34
0
255
255
255
198
57
0
255
255
255
175
80
0
255
255
255
152
103
0
255
255
255
255
255
255
255
255
255
221
34
0
255
255
255
198
57
0
255
255
255
175
80
0
255
255
255
152
103
0
255
255
255
128
127
0
255
255
255
255
255
255
255
255
255
197
58
0
255
255
255
174
81
0
255
255
255
151
104
0
255
255
255
128
127
0
255
255
255
255
255
255
255
255
255
197
58
0
255
255
255
174
81
0
255
255
255
151
104
0
255
255
255
128
127
0
255
255
255
105
150
0
255
255
255
255
255
255
255
255
255
174
81
0
255
255
255
151
104
0
255
255
255
128
127
0
255
255
255
105
150
0
255
255
255
255
255
255
255
255
255
174
81
0
255
255
255
151
104
0
255
255
255
128
127
0
255
255
255
105
150
0
255
255
255
82
173
0
255
255
255
255
255
255
255
255
255
151
104
0
255
255
255
128
127
0
255
255
255
105
150
0
255
255
255
82
173
0
255
255
255
255
255
255
255
255
255
151
104
0
255
255
255
128
127
0
255
255
255
105
150
0
255
255
255
82
173
0
255
255
255
59
196
0
255
255
255
255
255
255
255
255
255
128
127
0
255
255
255
105
150
0
255
255
255
81
174
0
255
255
255
58
197
0
255
255
255
255
255
255
255
255
255
255
255
255
255
255
255
255
255
255
255
255
255
255
255
255
255
255
255
255
255
255
255
255
255
255
255
255
255
255
255
