P2
# [PyPNM ver. 2.21.2.34](https://dnyarri.github.io/pypnm.html)
11 11
255
255 255 
255 255 255 
255 255 255 
255 255 255 
255 255 17 
255 32 255 
49 255 69 
255 255 255 
17 255 32 
255 49 255 
69 255 92 
255 255 255 
31 255 49 
255 69 255 
92 255 255 
255 32 255 
49 255 69 
255 93 255 
117 255 255 
255 49 255 
69 255 93 
255 117 255 
255 255 49 
255 70 255 
92 255 118 
255 145 255 
255 255 70 
255 93 255 
118 255 145 
255 255 255 
70 255 92 
255 118 255 
144 255 175 
255 255 255 
93 255 118 
255 146 255 
175 255 255 
255 255 255 
255 255 255 
255 255 255 
255 255 